<svg width="20" height="20" viewBox="0 0 20 20" fill="none" xmlns="http://www.w3.org/2000/svg">
<path d="M16.8096 10.3437C16.818 10.3239 16.8223 10.3026 16.8223 10.2812C16.8223 10.2597 16.818 10.2384 16.8096 10.2187C16.5096 9.65303 14.1533 5.36553 10.0002 5.2624C5.84705 5.15928 3.43767 9.56553 3.10017 10.203C3.08701 10.2258 3.08008 10.2517 3.08008 10.278C3.08008 10.3044 3.08701 10.3302 3.10017 10.353C3.46892 10.9562 6.04705 15.0155 9.27517 15.3124C12.8345 15.6249 15.7221 13.1249 16.8096 10.3437Z" stroke="#7E7972" stroke-width="1.5"/>
<path d="M9.90623 12.3968C11.0988 12.3968 12.0656 11.43 12.0656 10.2374C12.0656 9.04479 11.0988 8.078 9.90623 8.078C8.71364 8.078 7.74686 9.04479 7.74686 10.2374C7.74686 11.43 8.71364 12.3968 9.90623 12.3968Z" stroke="#7E7972" stroke-width="1.5"/>
</svg>
