<svg width="312" height="470" viewBox="0 0 312 470" fill="none" xmlns="http://www.w3.org/2000/svg">
<rect width="312" height="470" fill="white"/>
<path fill-rule="evenodd" clip-rule="evenodd" d="M171.553 35.0414C164.811 37.4564 155.148 44.9945 152.691 49.7582C150.704 53.6085 150.168 60.44 151.58 63.8893C152.566 66.2946 152.694 69.2978 152.182 77.9869C151.824 84.0596 151.499 89.8541 151.46 90.8629C151.393 92.5862 151.128 92.6436 147.074 91.8115C140.485 90.4583 135.637 92.6251 128.23 100.232L122.258 106.368L118.096 103.307C109.291 96.8331 98.9963 95.79 89.8348 100.442C83.6122 103.603 79.2385 108.2 72.4554 118.712C67.9328 125.719 66.4153 127.453 65.1524 127.051C63.2075 126.432 61.9059 127.862 57.5709 135.38C54.9324 139.954 54.4654 141.407 55.2338 142.641C56.0261 143.913 54.6707 146.555 47.4664 157.778C42.6662 165.256 38.11 173.231 37.3407 175.501C34.5568 183.721 36.1448 190.277 41.7646 193.758C44.9707 195.744 46.2141 195.887 65.7887 196.525C77.1428 196.895 86.612 197.376 86.8305 197.595C87.0491 197.815 85.9995 201.638 84.4987 206.091C81.1376 216.059 81.0028 218.433 83.7999 218.433C85.8268 218.433 85.8294 218.453 85.4584 228.887C84.9464 243.288 87.5144 254.154 94.6138 267.62L97.4938 273.085L95.236 279.545C93.9934 283.099 91.0826 291.57 88.7667 298.372C86.4507 305.173 81.5174 319.483 77.8038 330.171C74.0902 340.859 68.7154 356.455 65.8592 364.827C63.0039 373.2 59.9054 381.549 58.9739 383.379C56.1618 388.905 46.0264 404.208 43.5042 406.737C38.83 411.423 38.9719 417.098 43.8048 418.787C45.2976 419.308 46.5182 420.362 46.5182 421.128C46.5182 422.673 49.8784 424.243 53.1849 424.243C54.7227 424.243 55.3308 424.73 55.3308 425.959C55.3308 428.276 58.6064 430.426 62.1367 430.426C64.5902 430.426 65.0246 430.742 65.0246 432.527C65.0246 435.619 67.1123 436.917 71.2023 436.367C74.4136 435.935 74.7185 436.069 74.7185 437.911C74.7185 440.817 77.0838 442.362 81.2813 442.2C84.2634 442.084 85.0945 442.412 85.7774 443.971C87.0553 446.888 92.5667 447.966 96.1922 446.01C98.3239 444.859 99.6 444.681 101.246 445.309C104.407 446.514 107.975 445.575 109.989 443.008C112.377 439.965 112.373 430.604 109.981 425.322C108.592 422.254 107.39 421.131 103.612 419.367C101.05 418.172 97.8401 417.19 96.4803 417.186C90.189 417.163 88.3578 399.378 93.4788 388.028C107.723 356.458 119.225 331.344 121.175 327.556L122.975 324.058L125.622 329.323C150.057 377.931 162.073 402.842 163.522 407.902C166.264 417.47 169.074 430.302 169.755 436.362C170.554 443.484 171.528 444.486 175.707 442.489C177.953 441.415 179.218 441.235 179.992 441.878C181.489 443.123 186.399 441.36 187.575 439.155C188.283 437.83 188.831 437.661 190.142 438.365C192.728 439.751 194.141 439.449 196.604 436.98C198.32 435.261 199.244 434.906 200.367 435.535C202.351 436.647 207.486 435.42 209.857 433.267C211.278 431.976 212.598 431.651 215.113 431.971C217.79 432.312 218.92 431.977 220.676 430.324C222.133 428.952 223.713 428.336 225.338 428.507C226.954 428.676 228.699 428.005 230.426 426.549C232.108 425.129 233.703 424.502 234.859 424.805C237.404 425.473 242.034 422.838 242.652 420.371C243.476 417.078 241.566 411.65 238.19 407.697C231.804 400.219 224.87 397.869 214.385 399.631C206.151 401.013 202.227 400.173 198.085 396.14C194.977 393.114 194.205 391.184 187.065 368.595C182.842 355.235 177.885 339.733 176.049 334.146C174.214 328.559 169.458 313.653 165.482 301.022C161.506 288.391 156.924 274.081 155.301 269.223C151.877 258.982 148.744 248.278 148.744 246.824C148.744 246.217 150.324 245.815 152.71 245.815H156.676V251.609C156.676 255.246 157.004 257.199 157.557 256.857C158.042 256.556 158.438 253.795 158.438 250.719V245.129L161.613 244.532C163.358 244.203 164.943 244.091 165.133 244.282C165.324 244.472 164.335 248.021 162.936 252.169C159.927 261.092 158.76 266.08 159.98 264.806C160.811 263.939 166.905 245.434 171.71 229.188C173.05 224.658 174.735 220.286 175.454 219.471C177.316 217.366 191.558 155.759 190.898 152.668C190.675 151.621 187.754 153.012 178.707 158.475C150.432 175.547 141.404 179.567 131.338 179.567C126.33 179.567 125.418 179.289 123.221 177.086C119.218 173.074 118.21 166.579 119.58 153.614C120.202 147.727 120.924 140.029 121.184 136.506C121.445 132.983 122.035 130.102 122.498 130.102C123.357 130.102 122.864 138.544 121.363 149.535C120.019 159.381 120.382 168.967 122.258 173.108C123.638 176.155 124.578 176.999 127.599 177.907C132.542 179.391 139.788 177.873 149.523 173.315C156.405 170.092 207.705 139.934 210.266 137.606C211.212 136.746 211.062 135.812 209.439 132.465C208.348 130.215 207.63 128.248 207.843 128.093C208.056 127.939 211.6 125.671 215.72 123.054C219.84 120.438 225.033 116.806 227.261 114.987C231.031 111.906 231.549 111.733 234.752 112.477C239.91 113.676 243.57 113.482 244.847 111.94C245.948 110.61 251.801 74.2761 251.835 68.5541C251.844 67.0101 251.305 65.1993 250.638 64.5306C249.967 63.8575 244.611 62.6024 238.644 61.7199C224.785 59.6698 224.973 59.5267 222.871 73.6516L221.38 83.6701L218.572 84.246C212.071 85.578 208.868 89.4964 207.965 97.2218C207.17 104.021 210.017 101.805 160.377 134.269C156.354 136.901 152.587 138.894 152.005 138.698C151.423 138.502 151.981 137.781 153.247 137.093C154.51 136.406 163.894 130.336 174.098 123.605L192.651 111.367L191.752 108.782C191.257 107.36 189.675 105.016 188.237 103.575C184.939 100.268 181.349 100.154 175.681 103.175L171.511 105.398L171.995 102.954C172.261 101.611 172.716 99.1138 173.008 97.4055C173.464 94.7388 174.1 94.0675 177.516 92.6516C183.208 90.2914 186.482 87.2334 187.152 83.648C188.198 78.0638 186.039 67.5118 182.291 59.8791L178.821 52.8127L181.849 48.9138C189.186 39.4641 182.891 30.9809 171.553 35.0414ZM181.308 36.4485C185.247 38.5614 183.924 45.301 178.592 50.2908C172.793 55.717 155.792 65.2646 153.5 64.3822C151.689 63.6862 151.958 55.3522 153.931 50.9966C158.029 41.9542 174.879 33.0001 181.308 36.4485ZM180.957 60.0646C184.207 66.541 185.757 72.8664 185.757 79.6555C185.757 84.0305 185.426 85.041 183.334 87.0488C182.001 88.3287 179.059 90.196 176.795 91.1994C172.929 92.9121 172.62 93.3026 171.696 97.6502C169.599 107.511 169.035 108.903 167.133 108.903C164.409 108.903 160.577 105.782 159.298 102.522C158.674 100.93 156.911 98.2367 155.381 96.5364L152.599 93.4448L153.536 80.212L154.473 66.9783L162.196 62.7896C166.444 60.486 171.396 57.5949 173.201 56.3653C175.006 55.1366 176.884 54.2595 177.375 54.4176C177.866 54.5757 179.477 57.117 180.957 60.0646ZM233.345 67.7768C233.345 69.1839 231.747 70.4956 230.975 69.7218C230.25 68.9957 231.381 66.5039 232.437 66.5039C232.936 66.5039 233.345 67.0763 233.345 67.7768ZM235.093 75.1162C235.085 75.9668 233.3 79.9814 231.127 84.0384C228.954 88.0946 227.177 91.596 227.177 91.8195C227.177 93.1065 229.126 90.4919 232.736 84.3644C237.574 76.154 239.95 73.6534 241.47 75.1771C242.258 75.9677 241.258 78.7139 237.223 86.8288C231.735 97.8648 231.455 101.285 236.878 91.0316C241.101 83.0483 241.592 82.8318 241.043 89.197C240.362 97.1061 237.032 103.677 230.446 110.109C223.461 116.931 208.245 126.874 207.058 125.392C205.327 123.231 198.976 112.366 198.976 111.566C198.976 111.104 201.157 109.076 203.823 107.058C207.522 104.259 208.675 102.841 208.687 101.068C208.721 96.3862 210.942 90.0502 213.118 88.4285C215.664 86.5294 220.813 84.9067 221.38 85.8245C221.597 86.1778 220.408 88.1971 218.738 90.3135C217.067 92.429 215.904 94.3652 216.154 94.616C217.1 95.5638 221.315 90.5219 225.626 83.2867C228.087 79.1573 230.482 75.2822 230.949 74.6745C232.232 73.0068 235.111 73.3133 235.093 75.1162ZM110.22 100.583C112.47 101.351 115.991 103.475 118.045 105.302L121.78 108.624L118.878 116.492C117.283 120.819 115.367 126.175 114.62 128.392L113.262 132.424L93.7696 132.428C83.0491 132.43 72.3946 132.727 70.0919 133.088C67.2199 133.538 65.9059 133.436 65.9059 132.763C65.9059 132.224 68.8995 127.047 72.5576 121.259C79.8272 109.758 86.6578 102.758 92.7138 100.605C97.5449 98.8859 105.224 98.8771 110.22 100.583ZM163.409 114.538C162.609 121.314 158.703 132.161 156.588 133.485C155.572 134.121 154.597 134.496 154.42 134.319C154.243 134.141 155.216 130.238 156.583 125.645C157.951 121.052 159.564 115.194 160.171 112.628C161.116 108.624 161.46 108.118 162.599 109.065C163.599 109.896 163.799 111.246 163.409 114.538ZM65.0246 129.378C65.0246 130.827 57.9437 141.585 56.9902 141.585C55.8886 141.585 55.9944 141.143 57.9181 137.711C62.4161 129.684 65.0246 126.625 65.0246 129.378ZM219.595 130.626C219.891 131.4 220.392 133.088 220.706 134.38C221.433 137.358 222.455 138.022 226.339 138.039C229.12 138.05 229.592 138.401 230.602 141.201C232.046 145.202 233.482 145.723 237.752 143.793C241.88 141.927 243.676 142.451 244.44 145.743C245.872 151.92 249.459 153.745 254.496 150.86C257.143 149.343 261.006 149.183 263.44 150.489C265.521 151.605 267.703 156.372 267.741 159.885C267.762 161.783 267.951 162.03 268.569 160.971C269.921 158.655 268.053 152.846 265.103 150.197C261.911 147.33 259.586 147.175 253.828 149.451C248.709 151.473 246.875 150.77 246.072 146.477C245.762 144.821 244.735 142.765 243.789 141.907C242.282 140.541 241.721 140.49 239.25 141.498C233.55 143.822 233.018 143.71 231.428 139.862C230.042 136.503 229.73 136.285 226.333 136.285C222.646 136.285 222.486 136.131 221.505 131.648C221.213 130.312 220.542 129.219 220.015 129.219C219.488 129.219 219.299 129.852 219.595 130.626ZM111.731 134.875C111.731 135.556 109.919 140.823 107.703 146.578C105.488 152.334 102.565 160.024 101.207 163.668C97.0761 174.754 94.2904 181.451 90.8156 188.655L87.4968 195.534L67.2278 194.974C53.8406 194.604 46.0291 194.025 44.2198 193.271C37.9259 190.646 35.8108 185.219 38.0845 177.532C38.9085 174.747 44.2242 165.475 51.603 153.951L63.7635 134.96L71.2243 134.462C75.3275 134.188 86.1202 133.891 95.2078 133.8C108.876 133.664 111.731 133.849 111.731 134.875ZM239.514 135.402C239.514 135.888 240.718 136.285 242.19 136.285C244.855 136.285 246.067 137.251 250.479 142.882C252.531 145.502 252.534 145.503 257.017 144.352C265.379 142.203 271.844 146.681 273.942 156.074C274.541 158.759 275.326 160.774 275.686 160.55C276.681 159.935 274.918 153.14 272.77 149.31C271.723 147.442 269.531 145.087 267.899 144.076C265.319 142.478 264.095 142.313 258.552 142.816C252.314 143.383 252.146 143.345 250.937 141.08C249.049 137.546 244.968 134.519 242.09 134.519C240.673 134.519 239.514 134.916 239.514 135.402ZM196.308 147.989C193.437 149.938 193.314 150.292 190.024 166.17C187.029 180.626 186.8 182.617 187.885 184.719C189.922 188.668 199.525 197.18 204.457 199.41C211.23 202.471 250.954 211.056 251.824 209.646C252.191 209.049 253.438 208.696 254.595 208.86C256.575 209.14 256.681 209.456 256.396 214.199C256.104 219.04 256.203 219.308 258.866 220.932C263.979 224.048 273.235 224.109 274.87 221.038C275.245 220.334 275.792 218.249 276.087 216.405C276.48 213.943 277.187 212.838 278.753 212.241C279.996 211.767 281.139 210.414 281.494 208.995C281.829 207.655 282.811 205.356 283.676 203.885C284.541 202.412 285.516 198.592 285.841 195.394C286.41 189.819 286.337 189.503 284.074 187.719C282.017 186.097 281.792 185.446 282.316 182.646C282.857 179.752 283.138 179.487 285.125 179.987C287.101 180.484 287.271 180.329 286.744 178.509C286.421 177.391 285.918 174.396 285.626 171.855C285.021 166.569 286.532 167.234 269.985 164.979C257.586 163.29 258.259 163.206 257.555 166.538C257.222 168.117 256.199 170.648 255.282 172.163C253.188 175.621 253.198 176.034 255.377 176.034C256.846 176.034 257.139 176.623 257.139 179.567C257.139 181.51 256.743 183.1 256.258 183.1C255.773 183.1 255.377 182.329 255.377 181.386C255.377 180.443 255.054 179.472 254.66 179.228C254.267 178.983 245.443 176.754 235.052 174.273C224.662 171.791 214.734 169.385 212.99 168.925C210.06 168.152 209.513 167.435 205.785 159.474C203.566 154.737 201.48 149.766 201.149 148.431C200.421 145.489 200.043 145.455 196.308 147.989ZM273.883 167.047C283.198 168.407 284.041 168.687 284.3 170.513C284.641 172.925 285.137 172.907 270.579 170.988C259.475 169.523 258.902 169.349 258.902 167.441C258.902 164.999 259.705 164.978 273.883 167.047ZM273.249 172.926C278.474 173.663 283.087 174.267 283.501 174.267C284.432 174.267 285.391 177.667 284.596 178.149C284.278 178.341 281.837 178.184 279.171 177.799C276.505 177.415 270.557 176.607 265.952 176.005C261.347 175.402 257.221 174.583 256.78 174.184C255.217 172.766 258.119 170.677 261.006 171.142C262.515 171.385 268.024 172.187 273.249 172.926ZM116.295 181.34C113.974 183.53 109.717 186.574 106.836 188.105C101.238 191.079 90.575 194.871 89.8506 194.146C88.6433 192.936 91.6572 189.36 94.7081 188.381C100.588 186.496 109.998 181.153 114.239 177.293C118.278 173.615 118.358 173.587 119.429 175.459C120.413 177.177 120.113 177.74 116.295 181.34ZM264.248 189.661C266.815 190.425 269.777 191.05 270.829 191.05C273.374 191.05 278.639 194.676 279.027 196.695C279.62 199.78 277.761 200.252 273.043 198.218C267.509 195.832 265.086 196.68 265.043 201.018C264.997 205.719 263.209 207.202 257.59 207.202C254.896 207.202 252.448 206.959 252.152 206.663C251.619 206.128 254.337 185.961 255.125 184.603C255.35 184.214 256.445 184.881 257.557 186.084C258.669 187.287 261.681 188.897 264.248 189.661ZM284.449 190.148C285.633 192.367 284.716 196.149 282.737 197.211C281.513 197.868 280.941 197.447 279.804 195.055C278.588 192.501 278.568 192.016 279.662 191.595C280.362 191.326 280.933 190.497 280.933 189.753C280.933 187.812 283.346 188.084 284.449 190.148ZM273.126 199.84C276.547 201.375 277.181 201.424 278.919 200.282C281.331 198.698 283.577 198.624 283.577 200.128C283.577 202.42 280.797 205.129 277.881 205.677C272.359 206.716 265.197 202.884 266.466 199.57C267.187 197.687 268.441 197.738 273.126 199.84ZM269.507 205.772C271.126 206.581 274.161 207.244 276.251 207.244C280.237 207.244 281.16 208.462 278.715 210.495C275.52 213.153 265.071 210.533 265.071 207.074C265.071 205.746 265.766 204.3 266.404 204.3C266.491 204.3 267.887 204.962 269.507 205.772ZM140.955 219.316H156.676V221.954V224.592L138.83 224.155C129.016 223.914 113.684 223.526 104.762 223.291C89.521 222.891 84.155 223.566 94.3803 224.596L98.9532 225.057L99.2034 233.539L99.4546 242.021L93.5317 242.575C90.2736 242.88 87.3998 242.921 87.1452 242.666C86.4163 241.936 86.5908 223.576 87.354 220.723L88.0405 218.155L106.638 218.736C116.866 219.055 132.309 219.316 140.955 219.316ZM172.538 220.86C172.538 221.71 171.109 226.704 169.362 231.958C166.077 241.841 164.988 243.165 160.143 243.165C158.577 243.165 158.438 242.482 158.438 234.774V226.382H162.845C165.268 226.382 167.251 225.985 167.251 225.499C167.251 225.013 165.268 224.616 162.845 224.616C158.536 224.616 158.438 224.557 158.438 221.966V219.316H165.488C171.612 219.316 172.538 219.519 172.538 220.86ZM127.405 234.643L127.656 244.229L122.558 243.716C119.754 243.435 113.594 242.949 108.867 242.638L100.275 242.072V239.215C100.275 237.644 100.528 233.933 100.837 230.969L101.399 225.58L106.345 225.25C109.065 225.068 114.86 224.951 119.222 224.989L127.154 225.057L127.405 234.643ZM151.259 226.066L156.676 226.634V235.241V243.848L152.713 244.443C148.412 245.09 146.982 244.647 146.982 242.671C146.982 241.971 146.539 241.399 145.997 241.399C145.426 241.399 145.22 242.191 145.508 243.294C145.995 245.159 145.873 245.18 138.043 244.623C133.665 244.312 129.721 243.833 129.279 243.559C128.837 243.285 128.475 239.11 128.475 234.28V225.499H137.158C141.935 225.499 148.28 225.754 151.259 226.066ZM98.8897 257.077C98.5539 264.244 98.1591 270.246 98.0129 270.416C96.8267 271.799 87.4386 247.508 88.2952 245.273C88.623 244.415 90.3697 244.049 94.1318 244.049H99.4995L98.8897 257.077ZM126.052 245.481C127.413 245.881 127.594 247.219 127.594 256.916V267.898L120.324 267.913C116.325 267.922 110.277 268.518 106.885 269.238C103.493 269.959 100.617 270.548 100.495 270.548C100.375 270.548 100.275 264.532 100.275 257.179V243.81L112.392 244.42C119.057 244.754 125.203 245.232 126.052 245.481ZM142.22 246.372L146.711 246.912L154.022 269.992C158.043 282.686 161.532 293.609 161.776 294.265C162.07 295.055 161.667 295.353 160.589 295.144C159.691 294.971 158.681 293.838 158.345 292.626L157.732 290.422L157.645 292.874L157.557 295.326L144.118 295.082L130.679 294.839L130.031 282.532C129.675 275.764 129.571 270.039 129.799 269.809C130.206 269.402 143.519 271.044 147.863 272.039C149.417 272.394 149.806 272.26 149.182 271.587C148.697 271.062 145.326 270.205 141.692 269.683C138.058 269.162 133.796 268.529 132.221 268.276L129.357 267.817V256.817V245.815L133.543 245.823C135.845 245.827 139.749 246.074 142.22 246.372ZM128.75 281.795C129.052 288.467 129.014 294.159 128.667 294.444C128.319 294.729 123.932 294.735 118.919 294.459L109.803 293.955L105.056 284.681C102.445 279.58 100.301 274.741 100.292 273.929C100.276 272.564 102.587 271.432 107.766 270.266C108.735 270.048 113.73 269.823 118.866 269.767L128.204 269.664L128.75 281.795ZM99.3938 285.174V293.514H96.3614C94.6932 293.514 93.1324 293.195 92.8918 292.804C92.2582 291.776 97.8877 275.902 98.7064 276.409C99.0845 276.643 99.3938 280.587 99.3938 285.174ZM104.238 286.443C105.946 289.841 107.329 292.917 107.312 293.277C107.287 293.798 102.016 293.737 101.452 293.209C100.976 292.764 100.145 280.264 100.591 280.264C100.889 280.264 102.531 283.045 104.238 286.443ZM99.2369 295.712C99.741 296.218 101.072 308.291 101.118 312.772L101.156 316.572L93.4453 315.967C89.2047 315.634 85.5536 315.201 85.3333 315.004C85.113 314.807 86.4428 310.046 88.289 304.423L91.6457 294.201L95.266 294.781C97.2576 295.1 99.0448 295.519 99.2369 295.712ZM114.182 306.543L119.717 317.363H116.735C115.094 317.363 111.353 317.111 108.418 316.804L103.084 316.246L102.579 312.608C102.301 310.608 101.81 305.865 101.489 302.069L100.903 295.166L104.775 295.444L108.647 295.722L114.182 306.543ZM129.81 301.243C130.129 304.037 130.75 307.713 131.19 309.413C131.63 311.114 131.993 313.796 131.995 315.376C132.001 318.536 131.275 318.763 124.675 317.67C121.396 317.127 121.187 316.86 116.075 306.639L110.837 296.164H120.033H129.23L129.81 301.243ZM157.864 303.009C158.173 306.288 158.429 311.257 158.432 314.051L158.438 319.13H155.491C153.87 319.13 148.388 318.875 143.311 318.563L134.078 317.997L132.579 309.068C130.337 295.7 129.034 297.047 144.21 297.047H157.302L157.864 303.009ZM166.127 307.867L169.52 318.688L165.204 318.958C162.83 319.107 160.633 318.976 160.323 318.667C160.014 318.357 159.628 313.366 159.466 307.575C159.185 297.502 159.249 297.047 160.953 297.047C162.459 297.047 163.259 298.719 166.127 307.867ZM99.9657 318.319C101.691 318.956 101.912 319.872 102.437 328.57C102.754 333.823 103.092 339.313 103.187 340.771C103.355 343.35 103.265 343.412 99.8344 343.102C97.8957 342.926 92.757 342.528 88.4142 342.218L80.519 341.654L79.3698 337.679C78.2938 333.957 78.3995 333.159 81.0371 325.132L83.8536 316.56L90.9628 317.09C94.8729 317.381 98.9241 317.935 99.9657 318.319ZM116.578 318.987C120.162 319.462 121.034 319.919 121.25 321.434C121.396 322.46 119.255 328.123 116.493 334.021C111.3 345.109 110.41 345.99 106.518 343.902C105.204 343.197 104.844 341.34 104.329 332.64C103.99 326.91 103.491 321.327 103.22 320.234C102.754 318.352 102.979 318.251 107.45 318.324C110.047 318.366 114.155 318.664 116.578 318.987ZM130.606 319.666C131.545 320.026 132.03 321.399 132.089 323.862C132.137 325.875 132.494 328.515 132.882 329.729C133.394 331.333 133.611 330.304 133.675 325.975L133.763 320.013L144.999 320.026C151.178 320.034 156.684 320.332 157.231 320.689C157.779 321.046 158.487 324.717 158.803 328.846C159.12 332.975 159.602 338.242 159.873 340.55L160.366 344.746H150.883C145.668 344.746 141.648 344.994 141.952 345.298C142.255 345.601 146.583 346.098 151.571 346.402L160.639 346.954L161.315 352.254C161.687 355.169 161.886 360.713 161.757 364.575L161.523 371.595L155.13 371.849L148.737 372.102L135.519 345.616L122.301 319.13H125.757C127.658 319.13 129.84 319.371 130.606 319.666ZM173.778 331.717C175.642 337.668 177.362 343.233 177.6 344.083C177.987 345.47 177.246 345.629 170.416 345.629C161.192 345.629 161.439 345.993 160.551 331.098L159.942 320.896H165.166H170.389L173.778 331.717ZM78.2435 339.446C78.2435 341.212 77.8029 342.096 76.9216 342.096C75.3601 342.096 75.3451 341.998 76.459 339.061C77.5985 336.059 78.2435 336.198 78.2435 339.446ZM78.5749 343.685C78.8137 344.072 79.2949 349.893 79.643 356.62L80.2757 368.85L73.7518 368.206C70.1633 367.852 67.0877 367.422 66.9158 367.25C66.744 367.078 68.4836 361.547 70.7819 354.958C74.0637 345.551 75.3019 342.979 76.5498 342.979C77.424 342.979 78.3352 343.297 78.5749 343.685ZM98.9532 344.657C103.165 345.164 103.383 345.323 103.891 348.279L104.423 351.37L105.103 348.5C105.821 345.47 108.688 344.439 109.62 346.875C109.883 347.561 107.788 353.148 104.966 359.292L99.8344 370.462L92.7843 369.924C88.9068 369.627 84.6741 369.183 83.3778 368.935L81.0222 368.484L80.7137 356.394C80.5445 349.744 80.5463 343.992 80.7172 343.611C81.0063 342.968 88.46 343.396 98.9532 344.657ZM181.4 355.566C184.527 365.571 184.442 364.737 184.181 382.767L183.995 395.613L174.081 395.407L164.166 395.202L163.557 391.835C163.221 389.984 162.923 385.133 162.896 381.057L162.845 373.643L172.538 374.258C178.23 374.619 182.232 374.54 182.232 374.069C182.232 373.626 178.167 372.985 173.199 372.644C168.232 372.303 163.89 371.75 163.55 371.413C163.089 370.955 162.489 351.622 162.799 347.175C162.823 346.81 166.383 346.512 170.707 346.512H178.571L181.4 355.566ZM78.0144 370.287C79.9691 370.361 79.9831 370.46 79.4341 379.857C79.1292 385.08 78.797 389.457 78.6965 389.585C78.5961 389.713 74.6454 388.018 69.9174 385.818C62.8109 382.512 61.4291 381.553 61.9455 380.286C62.2901 379.443 63.3309 376.546 64.2597 373.85L65.9491 368.948L70.9943 369.581C73.7694 369.928 76.9287 370.246 78.0144 370.287ZM96.9703 371.809C97.819 372.05 98.5125 372.586 98.5125 373C98.5125 374.02 89.0214 394.211 88.542 394.211C88.3322 394.211 86.2842 393.379 83.9902 392.361C80.0757 390.625 79.8518 390.347 80.3533 387.834C80.6467 386.362 80.8873 381.786 80.8873 377.667V370.178L88.1577 370.775C92.156 371.103 96.1217 371.568 96.9703 371.809ZM192.807 392.098C192.807 392.669 191.853 393.376 190.686 393.669C189.519 393.963 187.933 394.447 187.161 394.743C185.917 395.222 185.765 393.894 185.824 383.043L185.892 370.803L189.349 380.932C191.251 386.503 192.807 391.527 192.807 392.098ZM162.058 384.936C162.352 391.252 162.65 396.519 162.719 396.64C162.788 396.761 166.116 396.899 170.115 396.948L177.385 397.036L173.42 398.29C171.239 398.98 167.988 399.783 166.198 400.074L162.941 400.604L156.504 387.659C149.27 373.113 149.282 372.815 157.116 373.223L161.523 373.453L162.058 384.936ZM52.7072 412.548C56.8342 414.619 63.1775 418.558 66.8039 421.303C77.6672 429.529 86.1343 434.762 90.8526 436.167C93.3025 436.896 98.606 437.493 102.639 437.493C109.77 437.493 109.969 437.55 109.969 439.593C109.969 443.492 104.115 445.918 101.163 443.241C99.5621 441.788 99.3638 441.805 97.1149 443.578C93.2549 446.621 86.6402 445.73 86.5961 442.159C86.5803 440.84 85.914 440.626 82.5071 440.84C77.921 441.127 75.4702 439.505 76.2096 436.672C76.6159 435.113 76.1373 434.909 71.5045 434.669C66.4276 434.406 66.3465 434.36 66.3192 431.751C66.2928 429.227 66.0848 429.08 61.9129 428.66C57.7234 428.237 57.5216 428.094 57.2581 425.347C56.9928 422.595 56.8245 422.477 53.1796 422.477C49.3276 422.477 47.1183 421.038 47.5889 418.836C47.7325 418.162 46.8997 417.521 45.6369 417.334C42.8433 416.92 41.2306 415.602 41.2306 413.732C41.2306 412.028 43.7678 408.127 44.6217 408.519C44.9416 408.665 48.5803 410.479 52.7072 412.548ZM240.742 415.041C242.644 420.008 239.67 423.917 234.703 422.983C232.724 422.611 231.583 422.739 231.583 423.332C231.583 425.164 226.192 427.693 224.04 426.874C222.396 426.246 221.758 426.52 220.548 428.372C219.243 430.369 218.616 430.585 215.237 430.204C212.044 429.842 211.088 430.111 209.488 431.819C207.032 434.439 202.922 435.367 200.21 433.913C198.343 432.911 197.937 433.038 196.285 435.144C194.258 437.728 192.777 438.04 190.201 436.427C188.744 435.516 188.235 435.699 186.665 437.7C184.166 440.885 181.539 441.621 180.035 439.561C178.895 437.997 178.767 438.011 176.738 439.922C173.48 442.99 171.97 442.493 171.368 438.155C170.999 435.491 171.203 434.13 172.071 433.467C172.744 432.953 177.387 431.384 182.39 429.98C187.393 428.577 201.995 424.363 214.839 420.617C227.683 416.87 238.645 413.769 239.2 413.725C239.754 413.68 240.447 414.272 240.742 415.041Z" fill="black"/>
</svg>
