<svg width="228" height="312" viewBox="0 0 228 312" fill="none" xmlns="http://www.w3.org/2000/svg">
<path fill-rule="evenodd" clip-rule="evenodd" d="M104.7 3.6512C102.646 4.54431 100.519 6.46952 99.0732 8.74446L97.797 10.7526L92.1993 11.0671C82.8671 11.5924 80.0978 12.5578 80.3543 15.1964C80.5679 17.3903 82.693 18.2889 87.7122 18.3079C90.6374 18.3186 91.4551 18.446 90.8505 18.7966C89.6088 19.5161 88.1213 22.78 88.0924 24.847C88.0631 26.9922 89.3863 28.7029 91.383 29.1004L92.6615 29.3552L91.8377 34.8264C91.3844 37.8361 90.6099 44.5492 90.1161 49.7453C89.3933 57.3558 89.0717 59.2741 88.4624 59.6136C88.0463 59.8457 87.3105 60.806 86.8279 61.7477L85.9501 63.4599L78.4121 64.7486C69.953 66.1948 67.7813 67.0671 60.3941 71.9852C45.0374 82.2088 34.6072 98 30.4342 117.345C29.2018 123.056 28.707 136.191 29.4973 142.21C30.0372 146.325 32.0404 155.049 32.6757 156.053C32.8558 156.337 33.0406 157.195 33.0862 157.96C33.1323 158.724 33.3171 161.538 33.4972 164.213C33.7876 168.532 33.7155 169.35 32.8521 171.503C32.1591 173.232 31.9967 174.236 32.2876 174.997C32.8265 176.408 33.9347 177.283 34.9749 177.119C35.4385 177.045 36.3772 177.357 37.0619 177.81C38.2082 178.569 38.4172 178.577 39.7148 177.909C40.4897 177.51 41.7101 177.179 42.4264 177.174C44.8633 177.154 46.8558 174.751 47.7057 170.808C47.9928 169.474 48.4201 168.382 48.6551 168.382C49.7466 168.382 50.9436 166.449 50.9436 164.687C50.9436 162.296 48.9456 157.028 47.2295 154.896C46.4127 153.881 46.0506 153.055 46.3094 152.798C46.5682 152.54 46.5482 150.282 46.2582 147.06C44.8782 131.737 48.9553 116.238 57.5061 104.299C59.9398 100.901 69.3851 91.1418 69.8105 91.5861C69.8799 91.6579 68.5111 101.619 66.7695 113.721C62.4005 144.075 59.8584 166.359 60.557 168.172C60.7003 168.542 61.3184 168.846 61.9309 168.846H63.0447V177.248V185.65L60.1358 185.321C55.2172 184.764 54.8997 184.776 54.8997 185.522C54.8997 186.342 58.114 187.282 61.1038 187.338L63.1191 187.375L62.8585 191.892C62.7151 194.376 62.4787 198.91 62.333 201.967C61.6838 215.591 60.8381 219.385 56.0982 229.943C51.7446 239.64 45.9096 253.499 38.5228 271.684C35.5735 278.945 31.2753 288.587 28.9714 293.111C26.6676 297.635 24.8831 301.597 25.006 301.916C25.1289 302.235 29.8781 304.634 35.56 307.248L45.8905 312L58.3071 311.877L70.7242 311.754L70.868 309.23C71.0653 305.769 70.7493 304.831 68.6032 302.514C66.4674 300.208 63.1145 298.612 59.6415 298.248C57.4461 298.018 56.9946 297.755 54.667 295.349C53.2591 293.893 51.5882 292.35 50.9539 291.919L49.8005 291.136L54.4892 286.39C65.7022 275.039 84.5017 253.709 92.4358 243.336C93.9828 241.313 95.9399 238.161 96.7851 236.331C98.7339 232.112 101.559 223.297 103.847 214.299C104.827 210.446 105.767 207.294 105.937 207.294C106.195 207.294 119.231 224.524 125.062 232.573C125.998 233.865 127.893 237.304 129.273 240.216C130.652 243.129 136.711 255.725 142.736 268.21C150.833 284.986 154.363 292.842 156.265 298.32C159.498 307.626 159.384 307.35 160.019 307.364C161.248 307.39 202.78 292.789 202.984 292.259C203.107 291.94 202.511 289.942 201.66 287.819C200.194 284.163 199.992 283.9 197.829 282.833C195.612 281.74 195.438 281.724 191.779 282.308C188.364 282.851 169.628 283.609 169.626 283.203C169.619 281.936 166.63 263.566 164.284 250.375C157.82 214.021 157.812 213.984 155.531 208.915C152.016 201.104 142.292 181.003 138.891 174.52C135.739 168.51 135.696 168.382 136.84 168.382C137.482 168.382 138.12 168.09 138.258 167.733C138.641 166.739 135.839 147.626 130.071 111.895C128.778 103.884 127.777 97.1699 127.846 96.974C127.915 96.778 131.322 98.8139 135.418 101.498C145.315 107.985 151.649 111.13 154.862 111.155C157.201 111.173 157.286 111.126 158.343 109.233C158.938 108.166 159.78 105.768 160.213 103.906C161.729 97.3788 161.044 66.3222 159.134 55.0058C158.917 53.7208 159.018 53.5003 159.82 53.5003C160.924 53.5003 162.309 51.1573 162.092 49.6541C162.002 49.031 161.197 48.2394 159.969 47.5663C158.882 46.9701 157.991 46.1618 157.991 45.7694C157.991 44.2935 155.969 41.5178 154.32 40.7322C153.396 40.2917 152.325 39.7515 151.941 39.5319C151.2 39.109 149.821 38.4707 147.492 37.4738C145.917 36.7998 144.23 37.0439 142.971 38.1283C142.229 38.7681 141.984 38.7616 140.512 38.063C139.613 37.6364 138.577 37.2871 138.211 37.2871C137.844 37.2871 136.809 36.9383 135.911 36.5117C134.485 35.8353 134.319 35.5847 134.604 34.5429C135.157 32.5209 134.926 29.1564 134.083 26.9598C132.527 22.9051 127.178 19.2747 122.651 19.2015C121.596 19.1844 121.173 18.5975 119.051 14.199C114.568 4.90842 109.825 1.42258 104.7 3.6512ZM110.791 5.81172C112.171 6.66083 115.638 10.7614 115.638 11.5452C115.638 11.7138 113.491 11.7305 110.867 11.5822C103.036 11.1403 100.279 10.8318 100.279 10.3987C100.279 9.72096 103.204 6.6196 104.7 5.71166C106.537 4.59666 108.878 4.63511 110.791 5.81172ZM96.5552 13.5737C96.5552 14.0346 96.2583 14.8161 95.8953 15.3103C95.3186 16.0946 94.5283 16.2294 89.6697 16.3721C86.0943 16.4772 83.7509 16.3475 83.1156 16.0089C80.7862 14.7684 82.5553 13.7794 88.0468 13.2527C95.1962 12.5671 96.5552 12.6185 96.5552 13.5737ZM111.056 13.4611L116.946 13.7506L118.154 16.4277C119.63 19.7023 119.639 19.9774 118.285 20.3156C116.257 20.8224 113.543 23.2298 112.169 25.7419C111.02 27.8436 110.764 28.9165 110.6 32.3073C110.411 36.2119 110.363 36.3606 109.298 36.3606C108.641 36.3606 108.191 36.634 108.191 37.0323C108.191 38.0589 109.601 38.6486 110.89 38.1608C111.863 37.7925 112.239 37.9949 113.77 39.7126L115.532 41.6878L114.185 43.3796C113.445 44.3102 112.074 45.7402 111.138 46.5574C109.674 47.8368 109.185 48.0096 107.617 47.8007C105.188 47.4764 102.436 45.5957 100.869 43.1892C99.3664 40.8823 98.8098 40.4167 98.2373 40.9865C96.9122 42.3053 102.32 48.2199 105.799 49.2576L107.725 49.8315L107.732 53.1714C107.735 55.0086 107.85 56.9283 107.987 57.4378C108.23 58.3383 107.999 58.3657 99.7071 58.4078L91.1773 58.4514L91.9834 50.0696C93.193 37.4983 94.2314 30.2293 94.9863 29.0517C95.8808 27.6565 95.3656 26.9389 93.7059 27.2692C92.9691 27.416 91.8423 27.3382 91.2029 27.096C90.2613 26.7397 90.0393 26.3395 90.0393 24.9998C90.0393 23.0371 91.0902 20.827 92.3408 20.1613C93.6091 19.4855 93.6384 19.4975 95.401 21.4125C96.6232 22.7402 97.1189 23.0144 97.541 22.5942C97.9627 22.1746 97.9175 21.7859 97.346 20.9178C96.5492 19.7078 96.7596 18.282 98.3034 14.4325L99.0159 12.6551L102.091 12.9131C103.782 13.0553 107.816 13.3018 111.056 13.4611ZM124.577 23.6217C126.219 28.4115 125.317 32.9313 121.549 38.7945C119.547 41.9097 118.903 41.9014 115.602 38.718C114.061 37.2325 113.23 35.966 112.84 34.5123C111.959 31.222 113.059 25.4723 114.366 26.5359C114.681 26.793 116.4 27.0765 118.184 27.1654C120.991 27.3058 121.45 27.2173 121.594 26.5081C121.82 25.3899 118.782 24.1387 116.669 24.4796C115.303 24.7006 115.174 24.6417 115.682 24.0312C116.873 22.603 120.817 21.0614 122.852 21.2291C123.526 21.2842 124.001 21.9429 124.577 23.6217ZM128.778 23.164C133.738 26.5183 134.511 34.0607 130.36 38.6059C129.814 39.204 128.602 40.0846 127.665 40.5626C125.983 41.421 122.154 42.2724 122.154 41.7879C122.154 41.6503 122.967 40.1124 123.962 38.3702C127.209 32.6807 127.897 28.6686 126.552 23.2743C126.159 21.6993 126.581 21.6784 128.778 23.164ZM92.1337 23.3336C90.5396 23.6731 90.2357 24.9401 91.699 25.1481C93.106 25.3486 95.159 24.4495 95.159 23.6333C95.159 22.8981 94.4911 22.8319 92.1337 23.3336ZM102.2 23.3438C100.829 24.2077 101.961 24.9118 104.838 24.9855C107.271 25.0475 107.725 24.9354 107.725 24.2739C107.725 23.8422 107.394 23.3628 106.989 23.208C105.907 22.7948 102.937 22.8787 102.2 23.3438ZM104.79 29.2449C104.419 29.615 104.839 30.3386 105.426 30.3386C105.667 30.3386 105.864 30.0259 105.864 29.6437C105.864 28.9276 105.315 28.7233 104.79 29.2449ZM116.685 29.7188C115.909 30.0306 115.944 31.4833 116.742 32.1429C117.664 32.904 118.896 32.2694 118.896 31.0335C118.896 30.2182 117.892 29.193 117.345 29.4487C117.302 29.4686 117.005 29.5905 116.685 29.7188ZM136.116 39.1521C136.116 39.7284 135.951 39.7196 134.509 39.0655C133.857 38.7699 133.324 38.2437 133.324 37.8958C133.324 37.3807 133.583 37.3964 134.72 37.982C135.488 38.3771 136.116 38.9038 136.116 39.1521ZM139.521 39.6658C140.928 40.394 140.904 40.3421 140.334 41.4025C139.894 42.221 139.66 42.2812 138.667 41.831C137.446 41.2774 137.343 41.0458 137.795 39.8729C138.132 38.9988 138.213 38.989 139.521 39.6658ZM145.425 40.5298C144.878 41.2941 144.199 41.9195 143.917 41.9195C143.635 41.9195 143.021 42.2646 142.553 42.6861C141.34 43.7784 141.5 42.8923 142.882 40.8688C143.723 39.6371 144.401 39.1401 145.24 39.1401H146.419L145.425 40.5298ZM133.906 40.7433C134.866 41.2297 135.651 41.7935 135.651 41.9959C135.651 42.1983 136.459 42.7741 137.447 43.2758C138.875 44.0012 139.247 44.4538 139.261 45.4854C139.286 47.3481 140.167 50.9771 140.864 52.0879C141.633 53.3118 144.006 54.4268 145.844 54.4268H147.286L147.237 65.6602C147.21 71.8389 147.053 78.7202 146.888 80.9525L146.588 85.0109L140.797 77.3407C133.375 67.5122 131.374 65.4342 128.374 64.4424C125.883 63.6192 119.637 62.7743 115.999 62.7687C114.045 62.7655 113.722 62.6154 113.103 61.4235C112.719 60.6856 111.837 59.6697 111.143 59.1661C109.964 58.311 109.866 57.9738 109.68 54.0993L109.481 49.9487L111.115 48.9889C112.013 48.4613 113.746 46.7894 114.964 45.2733L117.18 42.517L119.318 43.1785C123.124 44.3556 128.172 43.2198 130.764 40.602C131.276 40.0851 131.8 39.7066 131.927 39.7608C132.055 39.815 132.946 40.2569 133.906 40.7433ZM150.079 40.5909C150.079 40.8795 149.636 41.8287 149.095 42.7009L148.11 44.2861L147.435 42.9923C146.811 41.7948 146.836 41.6374 147.773 40.8823C148.922 39.9563 150.079 39.8104 150.079 40.5909ZM104.086 42.4814C104.306 43.9985 107.223 45.0185 109.113 44.2389C109.971 43.8854 110.518 43.3212 110.518 42.7899C110.518 41.7837 110.088 41.7124 108.465 42.4485C107.524 42.8751 107.072 42.8302 106.132 42.2169C104.542 41.1801 103.909 41.2621 104.086 42.4814ZM153.828 42.3966C154.321 42.6588 155.061 43.5232 155.474 44.3167C156.188 45.692 156.183 45.743 155.362 45.3956C152.372 44.13 150.756 44.7271 150.275 47.2768C149.917 49.1783 148.837 50.2693 148.41 49.1612C147.924 47.9017 151.278 41.9195 152.47 41.9195C152.725 41.9195 153.336 42.1339 153.828 42.3966ZM145.077 45.2719C142.741 47.7539 142.836 50.2577 145.266 50.2577C145.883 50.2577 146.931 50.6116 147.594 51.0438C148.719 51.7776 148.888 51.7785 150.144 51.0614C151.081 50.5259 151.805 50.4138 152.53 50.6922C153.73 51.1527 153.494 51.2666 149.695 52.0578C145.779 52.8731 144.137 52.7244 142.844 51.4366C140.878 49.4804 141.7 44.7406 144.169 43.7969C145.711 43.2077 146.229 44.0485 145.077 45.2719ZM146.643 47.3217C146.035 48.4395 145.925 48.4941 145.909 47.6867C145.899 47.1642 146.138 46.4907 146.441 46.1891C147.319 45.3154 147.422 45.8922 146.643 47.3217ZM156.858 48.143C160.391 49.7676 160.619 49.9941 159.882 51.1536C159.529 51.7076 158.894 51.5622 156.049 50.2781C152.032 48.465 151.729 48.2343 152.097 47.2777C152.489 46.2604 152.944 46.3429 156.858 48.143ZM45.8505 156.145C48.3107 159.704 49.9122 165.501 48.65 166.278C48.1874 166.562 47.9342 165.899 47.4809 163.216C47.2007 161.558 46.1274 160.57 45.5745 161.461C45.4209 161.708 45.5414 163.09 45.8416 164.531C46.7013 168.651 45.7849 173.17 43.7491 174.852C42.6074 175.795 42.5581 175.307 43.5155 172.546C44.8331 168.748 44.5399 163.055 43.0263 163.055C42.505 163.055 42.3617 163.938 42.3491 167.224C42.3351 170.901 42.1853 171.644 41.0804 173.515C38.4907 177.899 36.8236 177.613 38.6387 173.097C40.1039 169.451 40.5181 165.649 39.5812 164.445C39.0153 163.718 38.7732 163.65 38.4563 164.128C38.2343 164.463 38.1445 165.217 38.2571 165.804C38.5103 167.12 37.1917 172.394 36.2534 173.819C35.4166 175.091 34.1883 175.197 34.1883 173.998C34.1883 173.519 34.4941 172.4 34.8679 171.51C35.7117 169.499 35.8471 166.644 35.3677 160.95L34.9954 156.53L39.1298 155.328C41.4038 154.667 43.5159 154.103 43.8236 154.074C44.1312 154.046 45.0434 154.977 45.8505 156.145ZM140.921 182.859C144.884 190.821 149.855 201.087 151.969 205.673L155.811 214.011L158.305 227.618C164.793 263.012 168.049 283.168 167.384 283.829C166.741 284.469 154.51 288.388 154.379 287.996C154.309 287.79 151.932 282.836 149.096 276.988C146.26 271.141 140.387 258.984 136.046 249.974C127.387 232.004 128.075 233.094 112.052 211.978L106.291 204.387L109.335 192.195C111.009 185.489 112.38 179.681 112.38 179.288C112.38 177.977 111.063 178.553 110.567 180.079C110.032 181.732 107.639 191.226 104.058 205.904C99.8067 223.335 96.5497 233.494 93.637 238.41C90.0826 244.409 68.4711 269.379 53.9489 284.267L48.226 290.133L41.9055 287.538C38.4288 286.111 35.5846 284.701 35.5846 284.406C35.5846 283.034 56.8089 232.13 59.9659 225.929C62.4475 221.054 63.7004 213.199 64.4665 197.711C64.7397 192.182 65.0679 187.49 65.1949 187.285C65.3224 187.08 65.8256 186.912 66.3129 186.912C66.7997 186.912 68.4003 186.464 69.8687 185.918C73.0843 184.72 76.5499 181.641 77.9001 178.783C79.7888 174.783 78.6471 173.388 76.6197 177.218C74.2707 181.655 71.3469 183.983 66.8663 184.985L64.9064 185.423V177.14V168.857L81.778 168.73C91.0576 168.659 106.54 168.553 116.183 168.492L133.715 168.382L140.921 182.859ZM200.81 290.627C200.81 291.109 200.444 291.647 199.996 291.822C198.185 292.531 161.897 304.987 161.249 305.122C160.824 305.211 160.551 304.928 160.551 304.397C160.551 303.665 163.72 302.426 180.332 296.664C191.211 292.89 200.269 289.79 200.461 289.776C200.653 289.762 200.81 290.145 200.81 290.627ZM40.5809 304.974C46.2563 307.807 46.2884 307.816 50.3549 307.817C52.5987 307.818 57.7328 307.955 61.7647 308.122C68.4673 308.398 69.0952 308.497 69.0952 309.279C69.0952 310.085 68.4627 310.132 57.7095 310.132H46.3243L36.5648 305.667C26.8412 301.218 26.8076 301.197 27.4993 300.147L28.1937 299.092L31.5401 300.612C33.3804 301.448 37.4491 303.41 40.5809 304.974Z" fill="black"/>
</svg>
