<svg width="387" height="387" viewBox="0 0 387 387" fill="none" xmlns="http://www.w3.org/2000/svg">
<rect width="387" height="387" fill="white"/>
<path fill-rule="evenodd" clip-rule="evenodd" d="M213.224 50.2521C211.822 50.5902 209.341 51.7875 207.843 52.8498C205.426 54.5624 203.95 56.7807 203.504 59.3689C203.246 60.8599 203.599 62.6442 204.509 64.4604C205.24 65.9201 207.525 68.1878 209.186 69.1031L210.519 69.8377L209.356 71.3712C207.84 73.3701 206.326 75.8431 205.288 78.0152C204.692 79.2641 204.371 79.7321 204.156 79.666C201.584 78.8732 200.824 78.807 199.207 79.2343C197.791 79.6087 196.614 80.3232 195.584 81.4334C191.83 85.4787 193.665 92.0384 198.986 93.5962C199.963 93.8822 200.129 93.9969 200.056 94.3332C199.602 96.4118 199.025 101.574 198.845 105.177C198.624 109.595 199.431 111.956 201.876 114.042C203.966 115.826 207.799 117.332 211.85 117.963C213.059 118.152 214.153 118.333 214.281 118.366C214.409 118.399 214.619 118.945 214.748 119.58C214.877 120.215 215.419 122.476 215.953 124.605C217.118 129.253 218.144 133.792 218.144 134.299C218.144 134.651 218.073 134.647 216.565 134.214C214.1 133.504 211.953 133.27 207.953 133.272C202.16 133.275 198.812 133.699 186.203 136.027C177.082 137.711 178.104 137.722 176.112 135.913C174.013 134.008 173.526 132.767 173.081 128.196C172.696 124.245 172.325 122.558 171.464 120.849C170.579 119.091 168.904 117.523 166.881 116.556C166.06 116.164 165.389 115.817 165.389 115.784C165.389 115.751 164.139 108.232 162.613 99.0747C160.843 88.4596 159.681 82.0189 159.409 81.3046C158.56 79.0825 157.36 78.0102 155.505 77.8167C154.527 77.7147 136.764 80.0297 135.214 80.4612C132.766 81.1424 131.617 82.6621 131.617 85.2159C131.617 85.9983 131.7 87.0749 131.801 87.6085C132.111 89.2452 133.638 99.6389 133.575 99.6823C133.542 99.7048 133.231 99.9182 132.883 100.157C131.039 101.421 130.805 104.573 132.209 109.263L132.761 111.107H132.104C131.177 111.107 130.323 111.892 129.884 113.148C129.391 114.561 129.394 117.979 129.89 120.138C130.434 122.506 133.218 129.603 135.108 133.437C136.887 137.049 138.795 140.038 140.906 142.523C141.728 143.49 142.122 144.098 141.963 144.152C141.823 144.199 129.658 146.446 114.931 149.144C100.203 151.843 88.1216 154.074 88.0828 154.102C88.0443 154.131 88.2107 155.059 88.4529 156.165C88.6951 157.271 88.8616 158.203 88.823 158.238C88.7842 158.272 87.5934 158.539 86.1764 158.832C81.3273 159.834 76.7953 161.367 72.2812 163.53C64.5481 167.236 58.9128 171.686 54.3814 177.663L53.9817 178.19L46.1403 176.939C39.2962 175.848 38.2881 175.728 38.2135 176C37.8966 177.155 36.8688 182.206 36.9368 182.274C36.9829 182.32 40.0726 182.866 43.8027 183.489C47.5327 184.112 50.6112 184.639 50.6437 184.66C50.6761 184.682 50.51 185.403 50.2746 186.262C49.9917 187.294 49.8102 188.683 49.7393 190.356C49.576 194.215 50.064 195.11 52.9986 196.335C54.205 196.838 54.6138 197.108 54.7177 197.471C54.7929 197.733 54.9513 198.318 55.0698 198.772C55.6743 201.086 57.7576 202.692 60.138 202.68C60.8186 202.676 61.7003 202.535 62.0972 202.367L62.8186 202.06L62.9275 203.973C63.0771 206.606 63.5749 207.859 64.976 209.13C68.1019 211.968 71.889 211.003 73.8567 206.866C74.1755 206.196 74.5378 205.076 74.6617 204.378C74.7857 203.68 75.2442 201.679 75.6806 199.932C77.4553 192.83 77.8911 191.979 80.3597 190.79C81.7054 190.142 82.9133 190.144 83.5686 190.795C84.015 191.238 84.0502 191.393 83.9413 192.433C83.6515 195.195 82.6164 197.852 81.0757 199.788C79.8321 201.351 79.3839 202.345 79.2946 203.738C79.1399 206.15 80.5197 207.765 82.8812 207.934C84.4632 208.048 85.6155 207.697 87.3287 206.58C89.9736 204.856 91.3937 202.969 93.2887 198.661C94.7227 195.401 95.5939 193.817 96.4796 192.862L97.1456 192.144L102.996 191.098C106.214 190.522 108.877 190.086 108.914 190.129C108.951 190.171 108.405 191.635 107.701 193.382C106.183 197.15 103.742 204.185 102.643 207.965C101.35 212.409 100.093 218.437 98.5641 227.523C95.0594 248.35 93.6917 265.882 95.1647 271.097C95.4932 272.259 95.4958 272.262 96.3189 272.322L97.1439 272.382L95.0304 274.664C83.1545 287.491 78.5518 294.568 80.6454 296.781C81.4438 297.625 82.1684 297.745 85.0064 297.503C89.2277 297.141 94.548 296.903 98.1448 296.912C101.184 296.921 101.458 296.948 100.743 297.174C98.5193 297.874 96.8779 299.353 96.3391 301.142C96.1153 301.886 95.9752 303.977 95.8122 309.003C95.5328 317.621 95.9123 354.066 96.2946 355.333C96.4245 355.764 96.8091 356.393 97.1492 356.731C98.3113 357.885 98.4653 357.902 108.736 357.986C124.237 358.112 138.68 357.395 140.768 356.396C142.039 355.788 142.288 351.967 142.272 333.219C142.258 315.27 141.839 302.219 141.184 299.277C140.94 298.183 140.4 297.574 139.161 296.996L138.213 296.554L141.459 296.417C150.756 296.026 154.936 295.495 155.497 294.636C155.77 294.218 156.494 285.991 157.019 277.344C157.145 275.27 157.352 273.349 157.48 273.076C157.649 272.715 157.675 271.127 157.575 267.221C157.5 264.273 157.451 261.851 157.467 261.837C157.506 261.804 167.873 263.403 167.942 263.453C167.972 263.475 167.773 267.369 167.499 272.106C166.291 292.961 165.911 303.088 165.902 314.66C165.894 324.469 166.005 326.644 166.614 328.665L166.849 329.442L172.641 329.495L178.434 329.547L175.358 332.305C161.515 344.716 156.965 350.519 159.099 353.038C159.88 353.961 160.779 354.06 165.342 353.724C168.304 353.506 175.578 353.397 194.564 353.284C213.632 353.171 219.99 353.075 220.443 352.893C220.772 352.761 222.128 351.525 223.456 350.146C225.154 348.384 225.963 347.676 226.184 347.761C226.357 347.827 226.918 348.731 227.431 349.771C228.497 351.933 229.393 352.871 230.391 352.869C231.98 352.866 241.105 352.456 243.723 352.271C249.338 351.873 250.959 351.523 251.299 350.633C251.493 350.128 252.225 342.806 253.019 333.424C253.388 329.074 253.515 326.213 253.515 322.259V316.943H256.497H259.478L259.591 317.489C259.653 317.789 260.83 325.627 262.208 334.907C263.585 344.186 264.747 351.932 264.788 352.12C264.84 352.35 264.413 352.829 263.48 353.586C262.719 354.205 262.127 354.742 262.165 354.779C262.315 354.928 275.475 354.991 275.715 354.844C275.899 354.731 275.624 354.318 274.734 353.374C273.946 352.537 273.498 351.893 273.498 351.596C273.498 351.148 277.984 320.588 278.214 319.474L278.326 318.928H303.189C316.864 318.928 328.059 318.95 328.067 318.978C328.074 319.005 329.497 326.441 331.229 335.502L334.378 351.977L333.075 353.337C332.017 354.441 331.83 354.729 332.081 354.869C332.251 354.963 333.999 354.976 335.965 354.898L339.539 354.756L337.827 353.366L336.114 351.977L329.452 316.844C325.787 297.521 322.759 281.577 322.724 281.413C322.682 281.22 323.374 280.661 324.691 279.825C328.646 277.313 332.865 272.726 335.623 267.939C338.28 263.329 340.889 256.404 342.736 249.059C346.12 235.6 352.988 195.572 354.741 179.091C355.327 173.582 354.956 170.593 353.232 166.937C349.893 159.855 342.192 154.362 333.848 153.111C329.759 152.499 321.727 152.118 308.069 151.89C301.253 151.777 286.412 152.033 283.331 152.318L281.962 152.444L280.426 149.637C275.835 141.248 271.603 135.4 266.319 130.142C260.105 123.958 254.296 120.744 248.087 120.057C246.353 119.865 243.582 120.003 242.53 120.335C242.224 120.432 242.157 120.185 241.955 118.207C241.828 116.977 241.595 114.72 241.436 113.191C241.277 111.663 241.052 108.805 240.935 106.84C240.819 104.874 240.674 102.669 240.614 101.938L240.504 100.609L241.188 100.719C244.169 101.199 246.407 96.3098 250.74 79.8447L251.785 75.8748L251.781 72.699C251.779 70.0822 251.703 69.2436 251.349 67.9352C250.344 64.22 248.38 61.4784 245.243 59.4115C239.373 55.5447 228.225 51.403 220.642 50.272C218.266 49.9177 214.652 49.9079 213.224 50.2521ZM216.618 71.4306C221.198 72.5848 226.372 74.1986 227.815 74.9231L228.792 75.4137L228.677 77.8278C228.614 79.1553 228.322 82.0727 228.028 84.3107C227.612 87.4801 227.516 88.8846 227.595 90.6625C227.755 94.2814 228.425 95.5757 230.688 96.6345C231.428 96.9807 232.91 97.7536 233.983 98.3518C235.055 98.9501 236.584 99.6444 237.38 99.8945L238.827 100.349L238.876 101.51C239.012 104.763 239.592 112.406 239.934 115.474C240.148 117.384 240.323 119.403 240.324 119.959C240.326 120.958 240.315 120.977 239.481 121.349C237.182 122.377 234.581 124.531 233.016 126.703C231.778 128.422 230.618 130.939 230.005 133.239C229.535 134.999 229.472 135.613 229.455 138.65C229.439 141.416 229.384 142.057 229.169 141.975C229.023 141.919 228.187 141.873 227.312 141.873H225.721L224.98 140.655C223.926 138.921 222.786 137.549 221.607 136.594C221.045 136.14 220.49 135.735 220.371 135.694C220.253 135.654 219.969 134.638 219.738 133.437C219.508 132.237 218.658 128.53 217.849 125.2C217.04 121.87 216.316 118.725 216.241 118.21C216.165 117.694 215.992 117.182 215.858 117.071C215.723 116.96 214.28 116.645 212.65 116.371C206.345 115.31 202.607 113.336 201.176 110.313C200.678 109.262 200.66 109.091 200.679 105.748C200.698 102.511 201.053 98.5867 201.619 95.353L201.858 93.9896L203.144 93.5285C204.794 92.9374 205.861 92.1853 206.799 90.9525C207.694 89.778 208.128 88.613 208.288 86.9644C208.437 85.4267 207.85 83.3723 206.91 82.1355C206.549 81.6617 206.164 81.1521 206.055 81.0029C205.659 80.4658 209.064 74.4179 211.423 71.4677C211.878 70.8998 212.327 70.4308 212.421 70.4256C212.516 70.4205 214.404 70.8726 216.618 71.4306ZM214.902 80.4235C211.17 81.4935 208.788 85.3095 209.554 88.9912C210.06 91.4255 211.586 93.4116 213.709 94.4001C214.692 94.8578 215.106 94.93 216.746 94.93C218.384 94.93 218.8 94.8576 219.778 94.4021C221.366 93.6627 222.62 92.4429 223.39 90.8895C223.985 89.6893 224.04 89.4203 224.04 87.6893C224.04 85.9868 223.978 85.6714 223.421 84.5092C222.221 82.006 219.89 80.4014 217.214 80.2369C216.397 80.1865 215.467 80.2617 214.902 80.4235ZM202.87 81.0706C204.191 81.5176 205.769 83.0856 206.219 84.3975C207.338 87.6577 205.637 91.043 202.414 91.9737C199.836 92.7183 197.229 91.5285 195.975 89.0348C194.987 87.071 195.174 84.6815 196.445 83.0259C198.007 80.9917 200.445 80.2498 202.87 81.0706ZM218.944 82.3411C220.151 82.8826 221.287 83.9969 221.863 85.2039C222.551 86.645 222.536 88.8064 221.828 90.2176C220.124 93.6146 215.538 94.4126 212.882 91.7742C211.616 90.5166 211.255 89.6085 211.255 87.6851C211.256 86.2442 211.333 85.853 211.784 85.0055C212.264 84.1039 212.834 83.4614 213.796 82.7397C214.95 81.8744 217.469 81.6793 218.944 82.3411ZM136.613 85.3032C137.465 86.1498 136.87 88.1174 135.858 87.7984C135.415 87.6589 135.014 86.8929 135.014 86.1871C135.014 85.7014 135.634 84.9062 136.013 84.9062C136.123 84.9062 136.393 85.0849 136.613 85.3032ZM38.9589 89.7292C39.113 91.5394 39.5952 93.1109 41.1942 97.0142C42.8033 100.942 43.149 102.145 43.1668 103.876C43.179 105.073 43.0861 105.471 42.5365 106.58C41.7841 108.098 40.963 108.896 38.095 110.897C35.2352 112.892 32.2177 115.931 31.2346 117.806C30.2378 119.706 29.8179 121.693 30.0729 123.3C30.6125 126.699 31.8892 128.548 37.8914 134.628C43.9771 140.793 45.0916 142.419 45.0872 145.124C45.0834 147.456 44.1328 148.792 39.9751 152.305C36.926 154.882 34.6483 157.31 33.9453 158.732C33.4973 159.638 33.3989 160.105 33.3989 161.329V162.821L35.4816 166.914L37.5643 171.007L38.2793 170.757C38.8032 170.574 38.9759 170.41 38.9255 170.141C38.8424 169.697 37.4729 166.869 36.1027 164.313C34.9177 162.102 34.7804 160.911 35.533 159.366C36.0721 158.26 38.2173 155.994 40.5929 154.021C44.4769 150.796 45.8164 149.271 46.5 147.298C47.2877 145.023 46.7999 142.569 45.0386 139.947C44.3668 138.946 42.3365 136.717 39.2926 133.636C32.9507 127.217 31.8418 125.523 31.8145 122.212C31.8013 120.624 31.8506 120.414 32.5836 118.94C33.579 116.94 36.0951 114.375 39.0942 112.302C40.2482 111.505 41.5827 110.485 42.0597 110.037C44.5902 107.658 45.4027 104.865 44.578 101.381C44.4099 100.671 43.6072 98.4384 42.7939 96.4187C41.3565 92.8489 40.8413 91.1664 40.5903 89.2234L40.4684 88.2806H39.6521H38.8358L38.9589 89.7292ZM142.881 100.067C144.025 100.542 144.746 101.568 149.798 109.916C153.094 115.364 155.069 118.391 156.661 120.436C158.239 122.463 160.242 124.633 160.686 124.797C161.081 124.943 164.055 124.612 164.266 124.399C164.324 124.34 163.74 124.078 162.968 123.817C161.821 123.429 161.396 123.158 160.647 122.336C158.426 119.901 156.393 116.787 156.775 116.407C156.973 116.211 160.765 116.578 162.791 116.99C166.263 117.696 168.847 119.394 170.06 121.766C170.619 122.86 170.966 124.554 171.288 127.759C171.843 133.287 172.437 134.804 174.965 137.149C176.643 138.706 178.373 139.919 181.075 141.435C182.065 141.99 183.035 142.563 183.232 142.708C183.563 142.952 183.136 143.853 177.366 155.076C173.943 161.734 171.069 167.259 170.979 167.354C170.889 167.449 167.234 164.318 162.856 160.396C158.479 156.475 153.504 152.118 151.8 150.715C148.3 147.832 143.898 143.544 142.01 141.179C139.904 138.539 138.042 135.583 136.508 132.445C134.708 128.761 131.954 121.653 131.532 119.601C130.999 117.009 131.198 113.486 131.911 112.899C132.538 112.381 133.909 114.24 135.273 117.459C136.481 120.309 139.506 126.028 139.708 125.845C139.799 125.763 139.818 125.851 139.749 126.041C139.68 126.231 139.695 126.365 139.781 126.339C139.868 126.313 140.73 127.453 141.699 128.872C143.649 131.73 145.351 133.934 145.607 133.934C145.698 133.934 145.837 133.643 145.914 133.289C145.992 132.934 146.136 132.592 146.235 132.529C146.335 132.466 146.134 132.064 145.79 131.636C143.575 128.877 140.035 123.261 138.145 119.504C136.527 116.288 134.167 110.17 133.516 107.499C132.516 103.401 133.049 101.183 135.031 101.183C135.634 101.183 135.892 101.318 136.416 101.911C137.055 102.634 137.911 104.326 138.408 105.847C138.997 107.655 141.353 111.893 145.081 117.851L147.002 120.923L147.752 120.862C148.165 120.828 148.567 120.74 148.646 120.665C148.725 120.59 148.42 119.95 147.969 119.242C146.447 116.854 142.689 110.622 141.866 109.122C140.057 105.823 139.09 101.505 139.889 100.293C140.169 99.8689 140.371 99.7931 141.22 99.7931C141.77 99.7931 142.518 99.9164 142.881 100.067ZM249.142 121.919C258.737 123.588 268.657 132.696 277.522 147.976C280.229 152.642 284.552 161.509 291.433 176.51C293.09 180.122 310.997 220.028 311.407 221.022C311.488 221.218 309.438 221.27 301.546 221.27C296.067 221.269 289.513 221.211 286.983 221.14L282.384 221.011L282.822 219.283C284.82 211.411 284.056 201.832 279.82 181.671C278.176 173.841 277.957 172.712 277.686 170.655C277.398 168.469 276.3 164.226 275.516 162.267C273.804 157.989 271.687 154.746 268.611 151.69C263.207 146.32 256.228 143.167 246.623 141.755C243.799 141.34 236.967 141.178 233.952 141.455C232.59 141.581 231.421 141.629 231.354 141.564C231.288 141.498 231.204 140.394 231.168 139.11C230.85 127.863 238.924 120.141 249.142 121.919ZM212.449 135.146C218.035 135.826 221.075 137.535 223.341 141.271C224.615 143.371 225.117 143.659 227.516 143.663C228.572 143.665 229.538 143.731 229.664 143.812C229.79 143.892 230 144.672 230.131 145.545C230.92 150.817 232.962 160.296 235.264 169.364C236.095 172.64 236.822 175.528 236.879 175.784C236.96 176.148 231.259 172.457 210.528 158.723C195.978 149.084 183.184 140.685 182.097 140.058C180.404 139.081 180.189 138.902 180.598 138.805C181.583 138.574 193.078 136.495 195.912 136.035C197.534 135.772 199.895 135.459 201.159 135.34C202.423 135.221 203.771 135.093 204.156 135.057C205.864 134.893 210.81 134.947 212.449 135.146ZM247.22 143.625C255.871 144.955 262.448 147.973 267.41 152.888C272.062 157.496 274.89 163.479 275.993 171.052C276.176 172.307 277.034 176.728 277.898 180.877C279.755 189.784 280.514 193.772 281.072 197.55C282.432 206.754 282.422 214.578 281.044 219.392L280.592 220.972L268.501 221.024C256.415 221.075 256.41 221.075 256.149 220.658C254.734 218.409 249.329 207.559 244.586 197.451C241.918 191.763 240.744 189.626 238.21 185.839C234.055 179.629 229.62 174.636 224.137 169.995C222.962 169 235.954 177.62 241.725 181.664C245.545 184.341 249.817 187.225 255.429 190.914C256.744 191.779 258.476 192.404 258.763 192.119C258.86 192.022 258.91 191.65 258.875 191.29C258.822 190.758 258.692 190.596 258.177 190.421C257.178 190.082 250.819 185.932 243.53 180.863L239.326 177.939L238.903 176.53C236.804 169.533 232.661 151.238 231.875 145.499L231.597 143.467L232.215 143.366C233.61 143.138 234.662 143.109 239.527 143.166C243.399 143.211 245.246 143.321 247.22 143.625ZM201.21 154.601C209.809 160.29 216.93 165.024 217.033 165.119C217.137 165.213 216.417 164.94 215.435 164.511C211.849 162.944 208.112 162.173 205.269 162.415C198.316 163.007 193.061 167.254 187.978 176.392C186.936 178.265 183.114 185.828 182.919 186.403C182.887 186.495 179.441 184.5 175.259 181.97L167.657 177.37L176.547 160.812C181.437 151.706 185.468 144.255 185.506 144.255C185.543 144.255 192.61 148.911 201.21 154.601ZM144.813 146.759C146.032 148.003 149.73 151.262 152.008 153.1C154.926 155.453 170.006 169.107 169.946 169.34C169.795 169.927 165.351 177.97 165.133 178.051C164.999 178.102 163.96 178.304 162.824 178.501L160.758 178.86L159.633 177.586C156.023 173.5 152.058 169.946 148.303 167.432C140.412 162.15 133.203 161.023 126.92 164.089C122.642 166.176 119.311 169.843 115.636 176.51C114.156 179.195 111.503 184.502 110.525 186.732C110.215 187.442 109.947 188.045 109.932 188.072C109.882 188.157 97.9737 190.301 97.9088 190.236C97.8231 190.151 90.0488 155.503 90.1055 155.46C90.1957 155.391 142.915 145.688 143.314 145.667C143.563 145.653 144.144 146.077 144.813 146.759ZM316.662 153.782C332.035 154.224 335.834 154.718 340.422 156.873C346.705 159.825 351.321 164.982 352.845 170.754C353.636 173.75 353.343 177.982 351.43 191.21C348.594 210.822 343.782 237.651 341.257 247.935C338.066 260.933 333.934 269.333 327.904 275.082C326.072 276.829 323.603 278.644 321.858 279.528C321.473 279.722 321.023 279.96 320.859 280.055C319.042 281.109 314.943 282.564 312.266 283.105C308.417 283.884 306.902 283.994 297.178 284.205C287.294 284.419 255.537 284.33 253.965 284.085L253.115 283.952V281.117V278.283L268.952 278.384C288.774 278.511 293.356 278.29 298.73 276.942C303.097 275.848 305.487 274.577 310.289 270.797C313.677 268.13 317.919 263.907 319.72 261.411C324.002 255.475 328.4 245.706 333.058 231.79C337.224 219.344 343.157 197.863 344.516 190.305C346.592 178.757 345.012 170.013 339.843 164.441C337.367 161.773 334.265 160.245 328.352 158.782C324.894 157.927 323.062 157.69 317.062 157.326C312.615 157.056 291.174 156.977 287.081 157.215L284.378 157.373L283.596 155.781C283.166 154.905 282.861 154.143 282.916 154.088C283.326 153.681 305.996 153.476 316.662 153.782ZM92.676 174.934C94.52 183.115 96.0328 189.969 96.0376 190.164C96.0426 190.359 95.5995 191.098 95.053 191.806C94.5065 192.514 93.6162 194.007 93.0745 195.123C92.5327 196.24 91.5485 198.27 90.8875 199.634C89.5018 202.495 88.3208 203.944 86.388 205.156C84.1649 206.551 82.6428 206.711 81.5859 205.661C80.4778 204.561 80.7392 203.005 82.3858 200.902C84.259 198.509 85.4159 195.508 85.5907 192.588C85.6892 190.942 85.6605 190.748 85.2262 190.118C84.0968 188.479 81.9981 188.151 79.6461 189.244C78.3134 189.863 76.6784 191.301 76.1482 192.319C75.6944 193.191 74.197 198.514 73.3675 202.205C72.2139 207.338 71.096 208.999 68.7971 208.996C67.6889 208.994 67.0494 208.726 66.0804 207.856C64.7218 206.637 64.3403 204.315 64.7297 199.634C65.2187 193.757 68.8403 183.619 71.9447 179.437C72.4513 178.755 72.8659 178.123 72.8659 178.033C72.8659 177.943 72.6421 177.661 72.3684 177.405C71.88 176.949 71.8634 176.948 71.4561 177.314C71.135 177.603 70.1772 178.948 69.1664 180.53C69.1487 180.558 67.3436 180.299 65.155 179.955C62.6699 179.564 61.0426 179.215 60.8212 179.026C60.5816 178.821 60.4012 178.788 60.2641 178.924C60.1268 179.061 59.4334 179.031 58.1207 178.833C57.0532 178.673 56.1423 178.509 56.0966 178.468C56.0508 178.428 56.3164 178.016 56.6869 177.552C58.3287 175.496 59.7277 174.05 61.7752 172.294C67.1757 167.66 74.5649 163.736 81.8584 161.631C84.3677 160.907 88.7918 159.922 89.1379 160.011C89.2399 160.037 90.8319 166.753 92.676 174.934ZM136.812 164.312C142.676 165.237 149.343 169.316 155.744 175.893C161.283 181.585 165.893 188.124 169.193 194.97C174.1 205.15 175.022 207.202 174.926 207.731C174.872 208.027 174.326 210.189 173.713 212.536C171.954 219.263 170.763 225.721 170.199 231.592C169.961 234.068 169.021 247.411 168.461 256.267C168.12 261.659 168.103 261.785 167.699 261.693C167.473 261.641 165.129 261.267 162.491 260.862C159.853 260.457 157.642 260.069 157.578 260.001C157.513 259.932 157.533 258.76 157.622 257.396C158.456 244.643 158.823 240.064 159.301 236.433C159.738 233.12 161.656 227.194 162.187 227.52C162.299 227.589 162.391 227.781 162.391 227.947C162.391 228.183 162.533 228.219 163.041 228.113C163.398 228.038 163.769 227.904 163.865 227.814C164.131 227.566 163.851 226.732 163.273 226.049C162.225 224.813 161.032 225.407 160.001 227.678C159.297 229.229 158.087 233.098 157.815 234.668C157.351 237.35 156.834 243.15 156.075 254.22C155.764 258.761 155.677 267.358 155.921 269.454L156.042 270.496L127.543 270.538C111.869 270.562 98.5307 270.584 97.9032 270.588L96.7624 270.595L96.6047 269.901C96.2894 268.511 96.1994 262.978 96.4304 259.182C97.2831 245.169 100.769 221.778 103.632 210.849C106.011 201.771 110.011 191.354 114.682 182.068C118.334 174.808 120.2 171.885 122.924 169.157C127.004 165.072 131.558 163.484 136.812 164.312ZM210.917 164.684C220.566 167.172 232.219 178.071 239.838 191.735C240.343 192.641 242.064 196.151 243.663 199.535C247.305 207.245 252.782 218.284 254 220.368C254.507 221.237 255.116 222.153 255.352 222.402L255.781 222.857L284.074 222.907L312.366 222.957L313.021 225.235C314.437 230.158 315.042 235.536 314.685 240.034C314.005 248.597 311.056 255.427 305.772 260.671C300.361 266.041 293.263 269.226 283.59 270.625C280.635 271.053 273.068 271.096 262.308 270.747C258.296 270.617 254.73 270.508 254.383 270.504L253.752 270.496L253.63 268.66C253.038 259.742 253.115 248.979 253.795 245.454C254.109 243.827 254.748 242.361 255.222 242.18C255.563 242.05 255.638 240.325 255.303 240.325C254.435 240.325 253.226 241.569 252.646 243.057C251.603 245.738 251.277 253.126 251.711 264.249C251.899 269.067 251.904 270.797 251.729 271.395C251.285 272.917 251.262 279.157 251.617 301.178C251.814 313.397 251.909 324.354 251.827 325.528L251.678 327.662H209.853H168.028L167.901 326.818C167.635 325.062 167.55 310.073 167.769 303.545C168.445 283.395 171.026 239.642 172.102 230.103C173.986 213.393 180.589 193.256 189.35 177.503C191.767 173.157 193.016 171.391 195.259 169.151C197.957 166.456 200.264 165.115 203.457 164.385C205.166 163.993 208.804 164.14 210.917 164.684ZM53.8756 179.895C61.1811 181.047 67.2013 182.032 67.2538 182.084C67.3062 182.136 67.0986 182.943 66.7922 183.877C66.2914 185.405 66.1921 185.565 65.8038 185.471C65.5664 185.414 59.4414 184.376 52.1926 183.164C44.9441 181.953 38.9847 180.934 38.9499 180.899C38.8896 180.839 39.4109 178.378 39.5966 177.845C39.6491 177.695 39.8687 177.634 40.1389 177.696C40.3887 177.754 46.5701 178.743 53.8756 179.895ZM175.033 183.835L182.166 188.155L181.849 188.883C180.544 191.876 178.473 197.227 177.269 200.713C176.091 204.122 175.796 204.799 175.628 204.484C175.516 204.273 174.46 202.046 173.282 199.535C169.194 190.822 167.266 187.423 163.746 182.722L162.012 180.405L163.051 180.199C166.353 179.546 167.127 179.418 167.494 179.464C167.718 179.493 171.11 181.46 175.033 183.835ZM54.881 185.343C56.1449 185.56 57.1913 185.738 57.2062 185.739C57.221 185.739 56.977 186.689 56.6637 187.849C56.3506 189.009 55.857 191.13 55.5672 192.563C55.2775 193.996 55.0155 195.195 54.9849 195.227C54.8186 195.403 52.2172 194.155 51.8905 193.743C51.3361 193.043 51.2003 191.734 51.4528 189.528C51.6299 187.982 52.3521 184.941 52.5409 184.947C52.5641 184.948 53.617 185.126 54.881 185.343ZM62.6745 186.661C64.488 186.953 65.9941 187.208 66.0215 187.227C66.0489 187.246 65.6764 188.46 65.1936 189.925C64.1211 193.178 63.5647 195.386 63.2098 197.797C62.9163 199.789 62.6313 200.291 61.5318 200.754C59.4128 201.644 57.0128 200.235 56.5846 197.848C56.4055 196.849 57.3247 192.076 58.6964 186.881C58.8045 186.472 59.0019 186.135 59.1352 186.133C59.2683 186.131 60.861 186.369 62.6745 186.661ZM321.159 282.455C321.377 283.352 327.653 316.62 327.653 316.877C327.653 317.096 323.44 317.142 303.07 317.142H278.486L278.589 316.695C278.645 316.449 279.689 309.505 280.908 301.262C282.127 293.02 283.149 286.251 283.18 286.221C283.21 286.19 288.396 286.082 294.703 285.981C306.634 285.789 308.431 285.666 312.656 284.759C314.851 284.287 318.062 283.271 319.66 282.542C321.034 281.916 321.028 281.916 321.159 282.455ZM254.847 285.857C254.865 285.869 255.832 292.266 256.996 300.071C258.16 307.877 259.164 314.509 259.227 314.809L259.342 315.355H256.46H253.579L253.446 306.373C253.373 301.433 253.255 294.741 253.183 291.501L253.053 285.611L253.934 285.723C254.418 285.784 254.829 285.845 254.847 285.857ZM281.278 286.298C281.325 286.344 279.188 301.051 276.53 318.98C273.871 336.91 271.696 351.676 271.697 351.792C271.699 351.909 271.126 352.462 270.424 353.02L269.149 354.035L267.763 352.609L266.376 351.183L261.537 318.73C258.875 300.88 256.701 286.231 256.705 286.177C256.714 286.058 281.154 286.179 281.278 286.298ZM135.944 293.37C136.365 294.379 136.978 295.508 137.306 295.879C137.868 296.515 137.875 296.545 137.439 296.408C137.184 296.327 135.702 296.157 134.146 296.028C132.585 295.899 131.43 295.724 131.568 295.638C131.707 295.551 132.326 294.794 132.944 293.955C134.208 292.239 134.815 291.536 135.031 291.536C135.112 291.536 135.523 292.362 135.944 293.37ZM137.586 298.18C139.127 298.658 139.528 299.135 139.687 300.68C140.768 311.206 140.884 353.867 139.835 354.91C139.291 355.45 119.481 356.559 117.375 356.167C116.721 356.045 116.615 355.939 116.407 355.194C116.234 354.574 116.184 347.797 116.213 328.853C116.255 301.024 116.24 301.393 117.377 299.791C118.353 298.416 118.98 298.232 123.308 298.05C125.405 297.962 127.39 297.853 127.72 297.808C128.05 297.764 130.163 297.754 132.416 297.788C135.552 297.834 136.764 297.926 137.586 298.18ZM115.923 298.81C115.651 299.209 115.226 300.124 114.98 300.845L114.531 302.155L114.475 327.988C114.429 349.427 114.467 354.049 114.698 355.162L114.975 356.504L107.454 356.391C99.2005 356.266 98.5767 356.18 98.0301 355.092C97.7316 354.499 97.5038 340.359 97.4728 320.516C97.4524 307.382 97.649 302.222 98.2114 301.132C99.4891 298.657 101.617 298.169 111.378 298.115L116.418 298.086L115.923 298.81ZM122.985 301.948C121.009 302.453 120.724 303.138 120.422 308.11C120.296 310.184 120.223 314.61 120.26 317.945C120.35 326.212 119.975 325.761 126.721 325.702C131.622 325.658 133.332 325.465 134.511 324.818C135.893 324.061 135.891 324.074 136.052 315.653C136.264 304.525 136.082 303.243 134.148 302.28C133.247 301.831 132.993 301.808 128.564 301.759C125.431 301.725 123.618 301.786 122.985 301.948ZM123.24 329.556C121.69 329.983 120.838 330.571 120.407 331.513C120.061 332.269 120.035 332.994 120.031 341.813L120.027 351.3L120.503 351.774C121.265 352.53 122.224 352.657 127.52 352.697C133.285 352.741 134.3 352.574 135.504 351.378C136.676 350.213 136.712 349.895 136.712 340.564L136.713 332.128L136.213 331.135C135.364 329.448 135.016 329.357 129.219 329.303C125.368 329.268 124.092 329.322 123.24 329.556Z" fill="black"/>
</svg>
